<?xml version="1.0" encoding="utf-8"?>
<!-- Generator: Adobe Illustrator 25.0.1, SVG Export Plug-In . SVG Version: 6.00 Build 0)  -->
<svg version="1.1" xmlns="http://www.w3.org/2000/svg" xmlns:xlink="http://www.w3.org/1999/xlink" x="0px" y="0px"
	 viewBox="0 0 851.6 500" style="enable-background:new 0 0 851.6 500;" xml:space="preserve">
<style type="text/css">
	.st0{fill:#02023B;}
	.st1{fill:#FFFFFF;}
	.st2{fill:url(#SVGID_1_);}
	.st3{fill:url(#SVGID_2_);}
	.st4{fill:url(#SVGID_3_);}
	.st5{fill:url(#SVGID_4_);}
	.st6{fill:url(#SVGID_5_);}
	.st7{fill:url(#SVGID_6_);}
	.st8{fill:url(#SVGID_7_);}
	.st9{fill:url(#SVGID_8_);}
	.st10{fill:url(#SVGID_9_);}
	.st11{fill:url(#SVGID_10_);}
	.st12{fill:url(#SVGID_11_);}
	.st13{fill:url(#SVGID_12_);}
	.st14{fill:url(#SVGID_13_);}
	.st15{fill:url(#SVGID_14_);}
	.st16{fill:url(#SVGID_15_);}
	.st17{fill:url(#SVGID_16_);}
	.st18{fill:url(#SVGID_17_);}
	.st19{fill:url(#SVGID_18_);}
	.st20{fill:url(#SVGID_19_);}
	.st21{fill:url(#SVGID_20_);}
	.st22{fill:url(#SVGID_21_);}
	.st23{fill:url(#SVGID_22_);}
	.st24{fill:url(#SVGID_23_);}
	.st25{fill:url(#SVGID_24_);}
	.st26{fill:url(#SVGID_25_);}
	.st27{fill:url(#SVGID_26_);}
	.st28{fill:url(#SVGID_27_);}
	.st29{fill:url(#SVGID_28_);}
	.st30{fill:url(#SVGID_29_);}
	.st31{fill:url(#SVGID_30_);}
	.st32{fill:url(#SVGID_31_);}
	.st33{fill:url(#SVGID_32_);}
	.st34{fill:url(#SVGID_33_);}
	.st35{opacity:0.46;}
	.st36{fill:url(#SVGID_34_);}
	.st37{fill:url(#SVGID_35_);}
	.st38{fill:url(#SVGID_36_);}
	.st39{fill:url(#SVGID_37_);}
	.st40{opacity:0.4;}
	.st41{fill:url(#SVGID_38_);}
	.st42{fill:url(#SVGID_39_);}
	.st43{fill:url(#SVGID_40_);}
	.st44{fill:url(#SVGID_41_);}
	.st45{fill:url(#SVGID_42_);}
	.st46{fill:url(#SVGID_43_);}
	.st47{fill:url(#SVGID_44_);}
	.st48{fill:url(#SVGID_45_);}
	.st49{fill:url(#SVGID_46_);}
	.st50{fill:url(#SVGID_47_);}
	.st51{fill:url(#SVGID_48_);}
	.st52{fill:url(#SVGID_49_);}
	.st53{fill:url(#SVGID_50_);}
	.st54{fill:url(#SVGID_51_);}
	.st55{fill:url(#SVGID_52_);}
	.st56{fill:url(#SVGID_53_);}
	.st57{fill:url(#SVGID_54_);}
	.st58{fill:url(#SVGID_55_);}
	.st59{fill:url(#SVGID_56_);}
	.st60{fill:url(#SVGID_57_);}
	.st61{fill:url(#SVGID_58_);}
	.st62{fill:url(#SVGID_59_);}
	.st63{fill:url(#SVGID_60_);}
	.st64{fill:url(#SVGID_61_);}
	.st65{fill:url(#SVGID_62_);}
	.st66{fill:url(#SVGID_63_);}
	.st67{fill:url(#SVGID_64_);}
	.st68{fill:url(#SVGID_65_);}
	.st69{fill:url(#SVGID_66_);}
	.st70{fill:url(#SVGID_67_);}
	.st71{fill:url(#SVGID_68_);}
	.st72{fill:url(#SVGID_69_);}
	.st73{fill:url(#SVGID_70_);}
	.st74{fill:url(#SVGID_71_);}
	.st75{fill:url(#SVGID_72_);}
	.st76{fill:url(#SVGID_73_);}
	.st77{fill:url(#SVGID_74_);}
	.st78{fill:url(#SVGID_75_);}
	.st79{fill:url(#SVGID_76_);}
	.st80{fill:url(#SVGID_77_);}
	.st81{fill:url(#SVGID_78_);}
	.st82{fill:url(#SVGID_79_);}
	.st83{fill:url(#SVGID_80_);}
	.st84{fill:url(#SVGID_81_);}
	.st85{fill:url(#SVGID_82_);}
	.st86{fill:url(#SVGID_83_);}
	.st87{fill:url(#SVGID_84_);}
	.st88{fill:url(#SVGID_85_);}
	.st89{fill:url(#SVGID_86_);}
	.st90{fill:url(#SVGID_87_);}
	.st91{fill:url(#SVGID_88_);}
	.st92{fill:url(#SVGID_89_);}
	.st93{fill:url(#SVGID_90_);}
	.st94{fill:url(#SVGID_91_);}
	.st95{fill:url(#SVGID_92_);}
	.st96{fill:url(#SVGID_93_);}
	.st97{fill:url(#SVGID_94_);}
	.st98{fill:url(#SVGID_95_);}
	.st99{fill:url(#SVGID_96_);}
	.st100{fill:url(#SVGID_97_);}
	.st101{fill:url(#SVGID_98_);}
	.st102{fill:url(#SVGID_99_);}
	.st103{fill:url(#SVGID_100_);}
	.st104{fill:url(#SVGID_101_);}
	.st105{fill:url(#SVGID_102_);}
	.st106{fill:url(#SVGID_103_);}
	.st107{fill:url(#SVGID_104_);}
	.st108{fill:url(#SVGID_105_);}
	.st109{fill:url(#SVGID_106_);}
	.st110{fill:url(#SVGID_107_);}
	.st111{fill:url(#SVGID_108_);}
	.st112{fill:url(#SVGID_109_);}
	.st113{fill:url(#SVGID_110_);}
	.st114{fill:url(#SVGID_111_);}
	.st115{fill:url(#SVGID_112_);}
	.st116{fill:url(#SVGID_113_);}
	.st117{fill:url(#SVGID_114_);}
	.st118{fill:url(#SVGID_115_);}
	.st119{fill:url(#SVGID_116_);}
	.st120{fill:url(#SVGID_117_);}
	.st121{fill:url(#SVGID_118_);}
	.st122{fill:url(#SVGID_119_);}
	.st123{fill:url(#SVGID_120_);}
	.st124{fill:url(#SVGID_121_);}
	.st125{fill:url(#SVGID_122_);}
	.st126{fill:url(#SVGID_123_);}
	.st127{fill:url(#SVGID_124_);}
	.st128{fill:url(#SVGID_125_);}
	.st129{fill:url(#SVGID_126_);}
	.st130{fill:url(#SVGID_127_);}
	.st131{fill:url(#SVGID_128_);}
	.st132{fill:url(#SVGID_129_);}
	.st133{fill:url(#SVGID_130_);}
	.st134{fill:url(#SVGID_131_);}
	.st135{fill:url(#SVGID_132_);}
	.st136{fill:url(#SVGID_133_);}
</style>
<g id="BACKGROUND">
</g>
<g id="OBJECTS">
	<g>
		<g>
			<g>
				<g>
					<linearGradient id="SVGID_1_" gradientUnits="userSpaceOnUse" x1="192.7796" y1="92.0262" x2="192.7796" y2="386.0659">
						<stop  offset="0" style="stop-color:#F84FFF"/>
						<stop  offset="1" style="stop-color:#7B86FF"/>
					</linearGradient>
					<path class="st2" d="M192.8,280.2c-1.7,0-3.1-1.4-3.1-3.1v-82.9c0-1.7,1.4-3.1,3.1-3.1c1.7,0,3.1,1.4,3.1,3.1v82.9
						C195.8,278.8,194.5,280.2,192.8,280.2z"/>
					<linearGradient id="SVGID_2_" gradientUnits="userSpaceOnUse" x1="203.9366" y1="92.0263" x2="203.9366" y2="386.0656">
						<stop  offset="0" style="stop-color:#F84FFF"/>
						<stop  offset="1" style="stop-color:#7B86FF"/>
					</linearGradient>
					<path class="st3" d="M203.9,338.6c-7.8,0-14.2-6.4-14.2-14.2v-14.6c0-1.7,1.4-3.1,3.1-3.1c1.7,0,3.1,1.4,3.1,3.1v14.6
						c0,4.5,3.6,8.1,8.1,8.1c2.2,0,4.2-0.8,5.7-2.4c1.5-1.5,2.4-3.6,2.4-5.7v-14.3c0-1.7,1.4-3.1,3.1-3.1s3.1,1.4,3.1,3.1v14.3
						c0,3.8-1.5,7.4-4.2,10.1C211.3,337.1,207.8,338.6,203.9,338.6z"/>
					<linearGradient id="SVGID_3_" gradientUnits="userSpaceOnUse" x1="192.7796" y1="92.0262" x2="192.7796" y2="386.0659">
						<stop  offset="0" style="stop-color:#F84FFF"/>
						<stop  offset="1" style="stop-color:#7B86FF"/>
					</linearGradient>
					<path class="st4" d="M192.8,280.2c-1.7,0-3.1-1.4-3.1-3.1v-82.9c0-1.7,1.4-3.1,3.1-3.1c1.7,0,3.1,1.4,3.1,3.1v82.9
						C195.8,278.8,194.5,280.2,192.8,280.2z"/>
					<linearGradient id="SVGID_4_" gradientUnits="userSpaceOnUse" x1="203.9366" y1="92.0263" x2="203.9366" y2="386.0656">
						<stop  offset="0" style="stop-color:#F84FFF"/>
						<stop  offset="1" style="stop-color:#7B86FF"/>
					</linearGradient>
					<path class="st5" d="M203.9,338.6c-7.8,0-14.2-6.4-14.2-14.2v-14.6c0-1.7,1.4-3.1,3.1-3.1c1.7,0,3.1,1.4,3.1,3.1v14.6
						c0,4.5,3.6,8.1,8.1,8.1c2.2,0,4.2-0.8,5.7-2.4c1.5-1.5,2.4-3.6,2.4-5.7v-14.3c0-1.7,1.4-3.1,3.1-3.1s3.1,1.4,3.1,3.1v14.3
						c0,3.8-1.5,7.4-4.2,10.1C211.3,337.1,207.8,338.6,203.9,338.6z"/>
					<linearGradient id="SVGID_5_" gradientUnits="userSpaceOnUse" x1="215.0937" y1="92.0259" x2="215.0937" y2="386.0663">
						<stop  offset="0" style="stop-color:#F84FFF"/>
						<stop  offset="1" style="stop-color:#7B86FF"/>
					</linearGradient>
					<path class="st6" d="M215.1,218.2c-1.7,0-3.1-1.4-3.1-3.1v-20.9c0-1.7,1.4-3.1,3.1-3.1s3.1,1.4,3.1,3.1v20.9
						C218.2,216.9,216.8,218.2,215.1,218.2z"/>
					<linearGradient id="SVGID_6_" gradientUnits="userSpaceOnUse" x1="192.7796" y1="92.0262" x2="192.7796" y2="386.0659">
						<stop  offset="0" style="stop-color:#F84FFF"/>
						<stop  offset="1" style="stop-color:#7B86FF"/>
					</linearGradient>
					<path class="st7" d="M192.8,280.2c-1.7,0-3.1-1.4-3.1-3.1v-82.9c0-1.7,1.4-3.1,3.1-3.1c1.7,0,3.1,1.4,3.1,3.1v82.9
						C195.8,278.8,194.5,280.2,192.8,280.2z"/>
					<linearGradient id="SVGID_7_" gradientUnits="userSpaceOnUse" x1="215.0937" y1="92.0262" x2="215.0937" y2="386.0653">
						<stop  offset="0" style="stop-color:#F84FFF"/>
						<stop  offset="1" style="stop-color:#7B86FF"/>
					</linearGradient>
					<path class="st8" d="M215.1,279.9c-1.7,0-3.1-1.4-3.1-3.1v-45.5c0-1.7,1.4-3.1,3.1-3.1s3.1,1.4,3.1,3.1v45.5
						C218.2,278.5,216.8,279.9,215.1,279.9z"/>
					<linearGradient id="SVGID_8_" gradientUnits="userSpaceOnUse" x1="203.9366" y1="92.0263" x2="203.9366" y2="386.0656">
						<stop  offset="0" style="stop-color:#F84FFF"/>
						<stop  offset="1" style="stop-color:#7B86FF"/>
					</linearGradient>
					<path class="st9" d="M203.9,338.6c-7.8,0-14.2-6.4-14.2-14.2v-14.6c0-1.7,1.4-3.1,3.1-3.1c1.7,0,3.1,1.4,3.1,3.1v14.6
						c0,4.5,3.6,8.1,8.1,8.1c2.2,0,4.2-0.8,5.7-2.4c1.5-1.5,2.4-3.6,2.4-5.7v-14.3c0-1.7,1.4-3.1,3.1-3.1s3.1,1.4,3.1,3.1v14.3
						c0,3.8-1.5,7.4-4.2,10.1C211.3,337.1,207.8,338.6,203.9,338.6z"/>
					<linearGradient id="SVGID_9_" gradientUnits="userSpaceOnUse" x1="204.1664" y1="92.0253" x2="204.1664" y2="386.0655">
						<stop  offset="0" style="stop-color:#F84FFF"/>
						<stop  offset="1" style="stop-color:#7B86FF"/>
					</linearGradient>
					<path class="st10" d="M208.9,293.4c0-2.6-2.1-4.7-4.7-4.7c-2.6,0-4.7,2.1-4.7,4.7s2.1,4.7,4.7,4.7
						C206.8,298.2,208.9,296.1,208.9,293.4z"/>
					<linearGradient id="SVGID_10_" gradientUnits="userSpaceOnUse" x1="141.9279" y1="92.0257" x2="141.9279" y2="386.0658">
						<stop  offset="0" style="stop-color:#F84FFF"/>
						<stop  offset="1" style="stop-color:#7B86FF"/>
					</linearGradient>
					<path class="st11" d="M170.7,246.5c-1.7,0-3.1-1.4-3.1-3.1v-46.1h-24c-15.1,0-27.5,12.3-27.5,27.5c0,1.7-1.4,3.1-3.1,3.1
						c-1.7,0-3.1-1.4-3.1-3.1c0-18.5,15.1-33.6,33.6-33.6h27.1c1.7,0,3.1,1.4,3.1,3.1v49.2C173.8,245.1,172.4,246.5,170.7,246.5z"/>
					<linearGradient id="SVGID_11_" gradientUnits="userSpaceOnUse" x1="232.9645" y1="92.0261" x2="232.9645" y2="386.0666">
						<stop  offset="0" style="stop-color:#F84FFF"/>
						<stop  offset="1" style="stop-color:#7B86FF"/>
					</linearGradient>
					<path class="st12" d="M298.3,224.8V244c0,1.7-1.4,3.1-3.1,3.1c-1.7,0-3.1-1.4-3.1-3.1v-19.2c0-15.1-12.3-27.5-27.5-27.5h-24.4
						v126.9c0,6.3-1.6,12.3-4.6,17.7c-1.6,2.9-3.6,5.6-6,8c-6.8,6.9-15.9,10.6-25.6,10.6h-0.7c-13.1-0.2-24.6-7.7-30.7-18.6
						c-3.1-5.4-4.9-11.8-4.9-18.4v-63.6c0-1.7,1.4-3.1,3.1-3.1c1.7,0,3.1,1.4,3.1,3.1v63.6c0,6.9,2.2,13.3,6,18.4
						c5.4,7.4,14,12.3,23.6,12.4c8.2,0.2,16-3,21.9-8.8c1.1-1.1,2.2-2.3,3.1-3.6c3.7-5.1,5.7-11.2,5.7-17.7v-130
						c0-1.7,1.4-3.1,3.1-3.1h27.5C283.2,191.2,298.3,206.2,298.3,224.8z"/>
					<linearGradient id="SVGID_12_" gradientUnits="userSpaceOnUse" x1="285.3812" y1="92.029" x2="285.3812" y2="386.065">
						<stop  offset="0" style="stop-color:#F84FFF"/>
						<stop  offset="1" style="stop-color:#7B86FF"/>
					</linearGradient>
					<path class="st13" d="M298.3,261.8v115.8c0,12.5-10.2,22.7-22.7,22.7c-1.7,0-3.1-1.4-3.1-3.1c0-1.7,1.4-3.1,3.1-3.1
						c9.1,0,16.6-7.4,16.6-16.6V261.8c0-1.7,1.4-3.1,3.1-3.1C296.9,258.7,298.3,260.1,298.3,261.8z"/>
					<linearGradient id="SVGID_13_" gradientUnits="userSpaceOnUse" x1="122.0617" y1="92.0286" x2="122.0617" y2="386.0653">
						<stop  offset="0" style="stop-color:#F84FFF"/>
						<stop  offset="1" style="stop-color:#7B86FF"/>
					</linearGradient>
					<path class="st14" d="M134.1,397.2c0,1.7-1.4,3.1-3.1,3.1c-11.5,0-20.9-9.4-20.9-20.9v-73.2c0-1.7,1.4-3.1,3.1-3.1
						c1.7,0,3.1,1.4,3.1,3.1v73.2c0,8.2,6.6,14.8,14.8,14.8C132.7,394.2,134.1,395.6,134.1,397.2z"/>
					<linearGradient id="SVGID_14_" gradientUnits="userSpaceOnUse" x1="135.1592" y1="92.0166" x2="135.1592" y2="386.0738">
						<stop  offset="0" style="stop-color:#F84FFF"/>
						<stop  offset="1" style="stop-color:#7B86FF"/>
					</linearGradient>
					<path class="st15" d="M158.8,354.7c-0.5,0.3-1.1,0.5-1.6,0.5c-1,0-2-0.5-2.6-1.5c-2.3-3.7-4.2-7.6-5.5-11.7
						c-2.1-6-3.2-12.4-3.2-18.9v-64.5c0-8.2-6.7-14.8-14.8-14.8c-8.2,0-14.8,6.7-14.8,14.8V285c0,1.7-1.4,3.1-3.1,3.1
						c-1.7,0-3.1-1.4-3.1-3.1v-26.5c0-11.6,9.4-21,21-21c11.6,0,21,9.4,21,21V323c0,6.5,1.2,12.9,3.5,18.9c1.1,2.9,2.6,5.8,4.2,8.5
						C160.7,351.9,160.2,353.8,158.8,354.7z"/>
					<linearGradient id="SVGID_15_" gradientUnits="userSpaceOnUse" x1="214.1281" y1="92.008" x2="214.1281" y2="386.0623">
						<stop  offset="0" style="stop-color:#F84FFF"/>
						<stop  offset="1" style="stop-color:#7B86FF"/>
					</linearGradient>
					<path class="st16" d="M262.6,305.6V323c0,6.6-1.1,13-3.1,18.9c-7.9,22.9-29.6,39.4-55.2,39.4c-13.7,0-26.9-4.8-37.4-13.6
						c-1.3-1.1-1.5-3-0.4-4.3c1.1-1.3,3-1.5,4.3-0.4c9.4,7.8,21.3,12.1,33.5,12.1c22.1,0,41.1-13.8,48.7-33.3
						c2.3-5.9,3.5-12.3,3.5-18.9v-17.4c0-1.7,1.4-3.1,3.1-3.1C261.2,302.5,262.6,303.9,262.6,305.6z"/>
					<linearGradient id="SVGID_16_" gradientUnits="userSpaceOnUse" x1="259.4919" y1="92.0263" x2="259.4919" y2="386.0657">
						<stop  offset="0" style="stop-color:#F84FFF"/>
						<stop  offset="1" style="stop-color:#7B86FF"/>
					</linearGradient>
					<path class="st17" d="M259.5,291.8c-1.7,0-3.1-1.4-3.1-3.1v-43.5c0-1.7,1.4-3.1,3.1-3.1s3.1,1.4,3.1,3.1v43.5
						C262.6,290.4,261.2,291.8,259.5,291.8z"/>
					<linearGradient id="SVGID_17_" gradientUnits="userSpaceOnUse" x1="259.4919" y1="92.0262" x2="259.4919" y2="386.0666">
						<stop  offset="0" style="stop-color:#F84FFF"/>
						<stop  offset="1" style="stop-color:#7B86FF"/>
					</linearGradient>
					<path class="st18" d="M259.5,234.2c-1.7,0-3.1-1.4-3.1-3.1V215c0-1.7,1.4-3.1,3.1-3.1s3.1,1.4,3.1,3.1v16.1
						C262.6,232.8,261.2,234.2,259.5,234.2z"/>
					<linearGradient id="SVGID_18_" gradientUnits="userSpaceOnUse" x1="153.5915" y1="95.3192" x2="153.5915" y2="386.2177">
						<stop  offset="0" style="stop-color:#F84FFF"/>
						<stop  offset="1" style="stop-color:#7B86FF"/>
					</linearGradient>
					<path class="st19" d="M179.3,397.2c0,1.7-1.4,3.1-3.1,3.1c-26.6,0-48.3-21.7-48.3-48.3v-91.2c0-1.7,1.4-3.1,3.1-3.1
						c1.7,0,3.1,1.4,3.1,3.1V352c0,23.2,18.9,42.1,42.1,42.1C177.9,394.2,179.3,395.6,179.3,397.2z"/>
					<linearGradient id="SVGID_19_" gradientUnits="userSpaceOnUse" x1="232.5453" y1="92.0402" x2="232.5453" y2="386.066">
						<stop  offset="0" style="stop-color:#F84FFF"/>
						<stop  offset="1" style="stop-color:#7B86FF"/>
					</linearGradient>
					<path class="st20" d="M275.2,370c-7.4,18.4-25,30.3-44.8,30.3h-37.6c-1.7,0-3.1-1.4-3.1-3.1c0-1.7,1.4-3.1,3.1-3.1h37.6
						c17.3,0,32.7-10.4,39.1-26.4c0.6-1.6,2.4-2.3,4-1.7C275,366.7,275.8,368.5,275.2,370z"/>
					<linearGradient id="SVGID_20_" gradientUnits="userSpaceOnUse" x1="275.5594" y1="92.0206" x2="275.5594" y2="386.0728">
						<stop  offset="0" style="stop-color:#F84FFF"/>
						<stop  offset="1" style="stop-color:#7B86FF"/>
					</linearGradient>
					<path class="st21" d="M278.6,245.3V352c0,1.7-1.4,3.1-3.1,3.1c-1.7,0-3.1-1.4-3.1-3.1V245.3c0-1.7,1.4-3.1,3.1-3.1
						C277.2,242.2,278.6,243.6,278.6,245.3z"/>
				</g>
				<linearGradient id="SVGID_21_" gradientUnits="userSpaceOnUse" x1="148.1198" y1="92.0262" x2="148.1198" y2="386.0666">
					<stop  offset="0" style="stop-color:#F84FFF"/>
					<stop  offset="1" style="stop-color:#7B86FF"/>
				</linearGradient>
				<path class="st22" d="M148.1,234.2c-1.7,0-3.1-1.4-3.1-3.1V215c0-1.7,1.4-3.1,3.1-3.1s3.1,1.4,3.1,3.1v16.1
					C151.2,232.8,149.8,234.2,148.1,234.2z"/>
			</g>
			<linearGradient id="SVGID_22_" gradientUnits="userSpaceOnUse" x1="151.8847" y1="92.03" x2="151.8847" y2="386.0466">
				<stop  offset="0" style="stop-color:#F84FFF"/>
				<stop  offset="1" style="stop-color:#7B86FF"/>
			</linearGradient>
			<path class="st23" d="M158.3,117.1c-4.6,8-7.1,17.1-7.1,26.4v36.2c0,1.7-1.4,3.1-3.1,3.1s-3.1-1.4-3.1-3.1v-36.2
				c0-10.4,2.7-20.6,7.9-29.5c0.8-1.5,2.7-1.9,4.2-1.1C158.7,113.8,159.2,115.6,158.3,117.1z"/>
			<linearGradient id="SVGID_23_" gradientUnits="userSpaceOnUse" x1="209.9099" y1="92.0262" x2="209.9099" y2="386.0661">
				<stop  offset="0" style="stop-color:#F84FFF"/>
				<stop  offset="1" style="stop-color:#7B86FF"/>
			</linearGradient>
			<path class="st24" d="M253.9,122.2c-1.1,0-2.2-0.6-2.8-1.7c-8.9-18.2-27-29.5-47.3-29.5c-13.3,0-26,5-35.8,14
				c-1.2,1.2-3.2,1.1-4.3-0.2c-1.2-1.2-1.1-3.2,0.2-4.3c10.9-10.1,25.1-15.7,39.9-15.7c22.6,0,42.9,12.6,52.8,33
				c0.7,1.5,0.1,3.4-1.4,4.1C254.8,122.1,254.3,122.2,253.9,122.2z"/>
			<linearGradient id="SVGID_24_" gradientUnits="userSpaceOnUse" x1="258.7657" y1="92.026" x2="258.7657" y2="386.0659">
				<stop  offset="0" style="stop-color:#F84FFF"/>
				<stop  offset="1" style="stop-color:#7B86FF"/>
			</linearGradient>
			<path class="st25" d="M259.5,146.6c-1.7,0-3.1-1.4-3.1-3.1c0-4.1-0.5-8.1-1.4-12c-0.4-1.7,0.6-3.3,2.3-3.7
				c1.7-0.4,3.3,0.6,3.7,2.3c1,4.4,1.5,8.9,1.5,13.4C262.6,145.2,261.2,146.6,259.5,146.6z"/>
			<linearGradient id="SVGID_25_" gradientUnits="userSpaceOnUse" x1="259.4911" y1="92.0161" x2="259.4911" y2="386.0774">
				<stop  offset="0" style="stop-color:#F84FFF"/>
				<stop  offset="1" style="stop-color:#7B86FF"/>
			</linearGradient>
			<path class="st26" d="M262.6,157.8v22c0,1.7-1.4,3.1-3.1,3.1c-1.7,0-3.1-1.4-3.1-3.1v-22c0-1.7,1.4-3.1,3.1-3.1
				C261.2,154.7,262.6,156.1,262.6,157.8z"/>
			<linearGradient id="SVGID_26_" gradientUnits="userSpaceOnUse" x1="170.4654" y1="92.0221" x2="170.4654" y2="386.0648">
				<stop  offset="0" style="stop-color:#F84FFF"/>
				<stop  offset="1" style="stop-color:#7B86FF"/>
			</linearGradient>
			<path class="st27" d="M173.5,155.1v24.6c0,1.7-1.4,3.1-3.1,3.1c-1.7,0-3.1-1.4-3.1-3.1v-24.6c0-1.7,1.4-3.1,3.1-3.1
				C172.2,152,173.5,153.4,173.5,155.1z"/>
			<linearGradient id="SVGID_27_" gradientUnits="userSpaceOnUse" x1="187.1392" y1="92.0262" x2="187.1392" y2="386.0657">
				<stop  offset="0" style="stop-color:#F84FFF"/>
				<stop  offset="1" style="stop-color:#7B86FF"/>
			</linearGradient>
			<path class="st28" d="M170.5,145.5c-1.7,0-3.1-1.4-3.1-3.1c0-20.1,16.3-36.4,36.4-36.4c1.7,0,3.1,1.4,3.1,3.1
				c0,1.7-1.4,3.1-3.1,3.1c-16.7,0-30.3,13.6-30.3,30.3C173.5,144.2,172.2,145.5,170.5,145.5z"/>
			<linearGradient id="SVGID_28_" gradientUnits="userSpaceOnUse" x1="228.2388" y1="92.0252" x2="228.2388" y2="386.0579">
				<stop  offset="0" style="stop-color:#F84FFF"/>
				<stop  offset="1" style="stop-color:#7B86FF"/>
			</linearGradient>
			<path class="st29" d="M240.2,142.5v37.3c0,1.7-1.4,3.1-3.1,3.1c-1.7,0-3.1-1.4-3.1-3.1v-37.3c0-11.3-6.2-21.5-16.2-26.8
				c-1.5-0.8-2.1-2.7-1.3-4.2c0.8-1.5,2.7-2.1,4.2-1.3C232.8,116.6,240.2,128.9,240.2,142.5z"/>
		</g>
		<g class="st35">
			<linearGradient id="SVGID_29_" gradientUnits="userSpaceOnUse" x1="148.1206" y1="180.8217" x2="148.1206" y2="164.0991">
				<stop  offset="0" style="stop-color:#02023B"/>
				<stop  offset="1" style="stop-color:#02023B;stop-opacity:0"/>
			</linearGradient>
			<path class="st30" d="M145.1,162.8h6.1v17c0,1.7-1.4,3.1-3.1,3.1s-3.1-1.4-3.1-3.1V162.8z"/>
			<linearGradient id="SVGID_30_" gradientUnits="userSpaceOnUse" x1="170.4654" y1="180.8217" x2="170.4654" y2="164.0991">
				<stop  offset="0" style="stop-color:#02023B"/>
				<stop  offset="1" style="stop-color:#02023B;stop-opacity:0"/>
			</linearGradient>
			<path class="st31" d="M167.4,162.8h6.1v17c0,1.7-1.4,3.1-3.1,3.1c-1.7,0-3.1-1.4-3.1-3.1V162.8z"/>
			<linearGradient id="SVGID_31_" gradientUnits="userSpaceOnUse" x1="237.1467" y1="180.8217" x2="237.1467" y2="164.0991">
				<stop  offset="0" style="stop-color:#02023B"/>
				<stop  offset="1" style="stop-color:#02023B;stop-opacity:0"/>
			</linearGradient>
			<path class="st32" d="M234.1,162.8h6.1v17c0,1.7-1.4,3.1-3.1,3.1c-1.7,0-3.1-1.4-3.1-3.1V162.8z"/>
			<linearGradient id="SVGID_32_" gradientUnits="userSpaceOnUse" x1="259.4911" y1="180.8217" x2="259.4911" y2="164.0991">
				<stop  offset="0" style="stop-color:#02023B"/>
				<stop  offset="1" style="stop-color:#02023B;stop-opacity:0"/>
			</linearGradient>
			<path class="st33" d="M262.6,162.8v17c0,1.7-1.4,3.1-3.1,3.1c-1.7,0-3.1-1.4-3.1-3.1v-17H262.6z"/>
		</g>
		<g class="st40">
			<linearGradient id="SVGID_33_" gradientUnits="userSpaceOnUse" x1="122.0617" y1="398.9984" x2="122.0617" y2="348.6404">
				<stop  offset="0" style="stop-color:#02023B"/>
				<stop  offset="1" style="stop-color:#02023B;stop-opacity:0"/>
			</linearGradient>
			<path class="st34" d="M134.1,397.2c0,1.7-1.4,3.1-3.1,3.1c-11.5,0-20.9-9.4-20.9-20.9v-37.5h6.1v37.5c0,8.2,6.6,14.8,14.8,14.8
				C132.7,394.2,134.1,395.6,134.1,397.2z"/>
			<linearGradient id="SVGID_34_" gradientUnits="userSpaceOnUse" x1="154.6496" y1="398.9983" x2="154.6496" y2="348.6404">
				<stop  offset="0" style="stop-color:#02023B"/>
				<stop  offset="1" style="stop-color:#02023B;stop-opacity:0"/>
			</linearGradient>
			<path class="st36" d="M154.6,353.7c-2.3-3.7-4.2-7.6-5.5-11.7h6.5c1.1,2.9,2.6,5.8,4.2,8.5c0.9,1.4,0.4,3.3-1,4.2
				c-0.5,0.3-1.1,0.5-1.6,0.5C156.2,355.1,155.1,354.6,154.6,353.7z"/>
			<linearGradient id="SVGID_35_" gradientUnits="userSpaceOnUse" x1="153.5915" y1="398.9984" x2="153.5915" y2="348.6404">
				<stop  offset="0" style="stop-color:#02023B"/>
				<stop  offset="1" style="stop-color:#02023B;stop-opacity:0"/>
			</linearGradient>
			<path class="st37" d="M179.3,397.2c0,1.7-1.4,3.1-3.1,3.1c-26.6,0-48.3-21.7-48.3-48.3v-10.1h6.1V352c0,23.2,18.9,42.1,42.1,42.1
				C177.9,394.2,179.3,395.6,179.3,397.2z"/>
			<linearGradient id="SVGID_36_" gradientUnits="userSpaceOnUse" x1="204.0899" y1="398.9984" x2="204.0899" y2="348.6403">
				<stop  offset="0" style="stop-color:#02023B"/>
				<stop  offset="1" style="stop-color:#02023B;stop-opacity:0"/>
			</linearGradient>
			<path class="st38" d="M235.6,341.9c-1.6,2.9-3.6,5.6-6,8c-6.8,6.9-15.9,10.6-25.6,10.6h-0.7c-13.1-0.2-24.6-7.7-30.7-18.6h7.3
				c5.4,7.4,14,12.3,23.6,12.4c8.2,0.2,16-3,21.9-8.8c1.1-1.1,2.2-2.3,3.1-3.6H235.6z"/>
			<linearGradient id="SVGID_37_" gradientUnits="userSpaceOnUse" x1="212.5553" y1="398.9984" x2="212.5553" y2="348.6404">
				<stop  offset="0" style="stop-color:#02023B"/>
				<stop  offset="1" style="stop-color:#02023B;stop-opacity:0"/>
			</linearGradient>
			<path class="st39" d="M166.8,367.7c-1.3-1.1-1.5-3-0.4-4.3c1.1-1.3,3-1.5,4.3-0.4c9.4,7.8,21.3,12.1,33.5,12.1
				c22.1,0,41.1-13.8,48.7-33.3h6.5c-7.9,22.9-29.6,39.4-55.2,39.4C190.6,381.3,177.3,376.5,166.8,367.7z"/>
			<linearGradient id="SVGID_38_" gradientUnits="userSpaceOnUse" x1="232.5453" y1="398.9984" x2="232.5453" y2="348.6405">
				<stop  offset="0" style="stop-color:#02023B"/>
				<stop  offset="1" style="stop-color:#02023B;stop-opacity:0"/>
			</linearGradient>
			<path class="st41" d="M275.2,370c-7.4,18.4-25,30.3-44.8,30.3h-37.6c-1.7,0-3.1-1.4-3.1-3.1c0-1.7,1.4-3.1,3.1-3.1h37.6
				c17.3,0,32.7-10.4,39.1-26.4c0.6-1.6,2.4-2.3,4-1.7C275,366.7,275.8,368.5,275.2,370z"/>
			<linearGradient id="SVGID_39_" gradientUnits="userSpaceOnUse" x1="275.5594" y1="398.9983" x2="275.5594" y2="348.6404">
				<stop  offset="0" style="stop-color:#02023B"/>
				<stop  offset="1" style="stop-color:#02023B;stop-opacity:0"/>
			</linearGradient>
			<path class="st42" d="M272.5,352v-10.1h6.1V352c0,1.7-1.4,3.1-3.1,3.1C273.9,355.1,272.5,353.7,272.5,352z"/>
			<linearGradient id="SVGID_40_" gradientUnits="userSpaceOnUse" x1="285.3812" y1="398.9984" x2="285.3812" y2="348.6404">
				<stop  offset="0" style="stop-color:#02023B"/>
				<stop  offset="1" style="stop-color:#02023B;stop-opacity:0"/>
			</linearGradient>
			<path class="st43" d="M298.3,341.9v35.7c0,12.5-10.2,22.7-22.7,22.7c-1.7,0-3.1-1.4-3.1-3.1c0-1.7,1.4-3.1,3.1-3.1
				c9.1,0,16.6-7.4,16.6-16.6v-35.7H298.3z"/>
		</g>
	</g>
</g>
<g id="TEXTS">
	<g>
		<g>
			<g>
				<path class="st1" d="M352.9,234.3h-19.1c-0.3,0-0.5-0.2-0.5-0.6v-39.3c0-0.4,0.2-0.6,0.5-0.6h19.1c0.4,0,0.6,0.2,0.6,0.5v0.8
					c0,0.3-0.2,0.5-0.6,0.5h-17.2c-0.4,0-0.6,0.2-0.6,0.5v16.2c0,0.3,0.2,0.5,0.6,0.5h15.5c0.4,0,0.6,0.2,0.6,0.5v0.8
					c0,0.3-0.2,0.5-0.6,0.5h-15.5c-0.4,0-0.6,0.2-0.6,0.5v17c0,0.3,0.2,0.5,0.6,0.5h17.2c0.4,0,0.6,0.2,0.6,0.5v0.8
					C353.4,234.1,353.2,234.3,352.9,234.3z"/>
				<path class="st1" d="M371.1,234.3h-0.9c-0.3,0-0.5-0.2-0.5-0.6v-39.3c0-0.4,0.2-0.6,0.5-0.6h0.9c0.2,0,0.4,0.1,0.4,0.3
					l21.1,35.6h0.3v-35.3c0-0.4,0.2-0.6,0.5-0.6h0.9c0.3,0,0.5,0.2,0.5,0.6v39.3c0,0.4-0.2,0.6-0.5,0.6h-0.6c-0.3,0-0.5-0.2-0.8-0.5
					l-21-35.5h-0.3v35.4C371.6,234.1,371.5,234.3,371.1,234.3z"/>
				<path class="st1" d="M428.3,234.3h-8.2c-2.6,0-4.6-0.8-6.1-2.3c-1.5-1.5-2.3-3.6-2.3-6.2v-23.3c0-2.6,0.8-4.7,2.3-6.2
					c1.5-1.5,3.6-2.3,6.1-2.3h8.2c2.6,0,4.6,0.8,6.1,2.3c1.5,1.6,2.3,3.6,2.3,6.2v3.1c0,0.4-0.2,0.6-0.5,0.6h-0.9
					c-0.3,0-0.5-0.2-0.5-0.6v-3.1c0-2.1-0.6-3.8-1.7-5c-1.1-1.2-2.7-1.8-4.8-1.8h-8.2c-2.1,0-3.7,0.6-4.8,1.8
					c-1.1,1.2-1.7,2.9-1.7,5v23.2c0,2.1,0.6,3.8,1.7,5c1.1,1.2,2.7,1.8,4.8,1.8h8.2c2.1,0,3.7-0.6,4.8-1.8c1.1-1.2,1.7-2.9,1.7-5
					v-3.1c0-0.4,0.2-0.6,0.5-0.6h0.9c0.3,0,0.5,0.2,0.5,0.6v3.1c0,2.6-0.8,4.7-2.3,6.2C432.9,233.5,430.9,234.3,428.3,234.3z"/>
				<path class="st1" d="M454.2,234.3h-0.9c-0.3,0-0.5-0.2-0.5-0.6v-39.3c0-0.4,0.2-0.6,0.5-0.6h14.1c2.6,0,4.6,0.8,6.1,2.3
					c1.5,1.6,2.3,3.6,2.3,6.2v6.3c0,2.3-0.6,4.3-1.9,5.7c-1.3,1.5-3,2.4-5.1,2.7v0.3l7.7,16.3c0.2,0.4,0.1,0.6-0.3,0.6h-1.1
					c-0.3,0-0.6-0.2-0.8-0.6l-7.7-16.5h-11.5c-0.4,0-0.6,0.2-0.6,0.5v16C454.7,234.1,454.5,234.3,454.2,234.3z M455.2,215.5h12.2
					c2.1,0,3.7-0.6,4.8-1.8c1.1-1.2,1.7-2.9,1.7-5v-6.2c0-2.1-0.6-3.8-1.7-5c-1.1-1.2-2.7-1.8-4.8-1.8h-12.2c-0.4,0-0.6,0.2-0.6,0.5
					V215C454.7,215.3,454.8,215.5,455.2,215.5z"/>
				<path class="st1" d="M494.6,194.4v39.3c0,0.4-0.2,0.6-0.5,0.6h-0.9c-0.3,0-0.5-0.2-0.5-0.6v-39.3c0-0.4,0.2-0.6,0.5-0.6h0.9
					C494.4,193.8,494.6,194,494.6,194.4z"/>
				<path class="st1" d="M513.9,234.3H513c-0.3,0-0.5-0.2-0.5-0.6v-39.3c0-0.4,0.2-0.6,0.5-0.6h14.2c2.6,0,4.6,0.8,6.1,2.3
					c1.5,1.6,2.3,3.6,2.3,6.2v7.7c0,2.6-0.8,4.7-2.3,6.2c-1.5,1.6-3.6,2.3-6.1,2.3h-12.3c-0.4,0-0.6,0.2-0.6,0.5v14.5
					C514.4,234.1,514.2,234.3,513.9,234.3z M514.9,216.9h12.3c2.1,0,3.7-0.6,4.8-1.8c1.1-1.2,1.7-2.9,1.7-5v-7.6
					c0-2.1-0.6-3.8-1.7-5c-1.1-1.2-2.7-1.8-4.8-1.8h-12.3c-0.4,0-0.6,0.2-0.6,0.5v20.3C514.4,216.7,514.5,216.9,514.9,216.9z"/>
				<path class="st1" d="M559.4,234.3h-0.9c-0.3,0-0.5-0.2-0.5-0.6v-37.6c0-0.3-0.2-0.5-0.6-0.5h-9.7c-0.4,0-0.6-0.2-0.6-0.5v-0.8
					c0-0.3,0.2-0.5,0.6-0.5h22.4c0.4,0,0.6,0.2,0.6,0.5v0.8c0,0.3-0.2,0.5-0.6,0.5h-9.7c-0.4,0-0.6,0.2-0.6,0.5v37.6
					C559.9,234.1,559.7,234.3,559.4,234.3z"/>
				<path class="st1" d="M581.5,234.3h-0.9c-0.4,0-0.5-0.2-0.4-0.6l13.2-39.3c0.1-0.4,0.3-0.6,0.6-0.6h1.5c0.3,0,0.5,0.2,0.6,0.6
					l13.2,39.3c0.1,0.4,0,0.6-0.4,0.6h-0.9c-0.3,0-0.5-0.2-0.6-0.6l-3.8-10.9H586l-3.8,10.9C582,234.1,581.8,234.3,581.5,234.3z
					 M594.7,196.2l-8,24.6h16.2l-8-24.6H594.7z"/>
				<path class="st1" d="M623.3,233.7v-39.3c0-0.4,0.2-0.6,0.5-0.6h15.5c2.6,0,4.6,0.8,6.1,2.3c1.5,1.6,2.3,3.6,2.3,6.2v23.3
					c0,2.6-0.8,4.7-2.3,6.2c-1.5,1.6-3.6,2.3-6.1,2.3h-15.5C623.4,234.3,623.3,234.1,623.3,233.7z M625.7,232.5h13.5
					c2.1,0,3.7-0.6,4.8-1.8c1.1-1.2,1.7-2.9,1.7-5v-23.2c0-2.1-0.6-3.8-1.7-5c-1.1-1.2-2.7-1.8-4.8-1.8h-13.5
					c-0.4,0-0.6,0.2-0.6,0.5V232C625.1,232.3,625.3,232.5,625.7,232.5z"/>
				<path class="st1" d="M680.3,234.3h-7.9c-2.6,0-4.6-0.8-6.1-2.3c-1.5-1.5-2.3-3.6-2.3-6.2v-23.3c0-2.6,0.8-4.7,2.3-6.2
					c1.5-1.5,3.6-2.3,6.1-2.3h7.9c2.6,0,4.6,0.8,6.1,2.3c1.5,1.6,2.3,3.6,2.3,6.2v23.3c0,2.6-0.8,4.7-2.3,6.2
					C684.9,233.5,682.8,234.3,680.3,234.3z M672.4,232.5h7.9c2.1,0,3.7-0.6,4.8-1.8c1.1-1.2,1.7-2.9,1.7-5v-23.2
					c0-2.1-0.6-3.8-1.7-5c-1.1-1.2-2.7-1.8-4.8-1.8h-7.9c-2.1,0-3.7,0.6-4.8,1.8c-1.1,1.2-1.7,2.9-1.7,5v23.2c0,2.1,0.6,3.8,1.7,5
					C668.7,231.9,670.3,232.5,672.4,232.5z"/>
				<path class="st1" d="M707,234.3h-0.9c-0.3,0-0.5-0.2-0.5-0.6v-39.3c0-0.4,0.2-0.6,0.5-0.6h14.1c2.6,0,4.6,0.8,6.1,2.3
					c1.5,1.6,2.3,3.6,2.3,6.2v6.3c0,2.3-0.6,4.3-1.9,5.7c-1.3,1.5-3,2.4-5.1,2.7v0.3l7.7,16.3c0.2,0.4,0.1,0.6-0.3,0.6h-1.1
					c-0.3,0-0.6-0.2-0.8-0.6l-7.7-16.5h-11.5c-0.4,0-0.6,0.2-0.6,0.5v16C707.5,234.1,707.4,234.3,707,234.3z M708.1,215.5h12.2
					c2.1,0,3.7-0.6,4.8-1.8c1.1-1.2,1.7-2.9,1.7-5v-6.2c0-2.1-0.6-3.8-1.7-5c-1.1-1.2-2.7-1.8-4.8-1.8h-12.2c-0.4,0-0.6,0.2-0.6,0.5
					V215C707.5,215.3,707.7,215.5,708.1,215.5z"/>
			</g>
			<g>
				<path class="st1" d="M372.6,256.4h-15.7c-8.4,0-15.3,2.5-20.5,7.6c-5.2,5.1-7.8,12-7.8,20.6v7.2c0,3.1,2.1,5.3,5.1,5.3h2.6
					c3,0,5.1-2.2,5.1-5.3v-7c0-5.3,1.3-9.2,3.9-11.9c2.6-2.7,6.4-4,11.6-4h15.7c5.2,0,8.9,1.3,11.6,4c2.6,2.7,3.9,6.6,3.9,11.9v12
					c0,5.3-1.3,9.2-3.9,11.9c-2.6,2.7-6.4,4-11.6,4h-11.4c-3.1,0-5.3,2.1-5.3,5.1v2.2c0,3,2.2,5.1,5.3,5.1h11.4
					c5.2,0,8.9,1.3,11.6,4c2.6,2.7,3.9,6.6,3.9,11.9v12.9c0,5.3-1.3,9.2-3.9,11.9c-2.6,2.7-6.4,4-11.6,4h-15.7
					c-5.2,0-8.9-1.3-11.6-4c-2.6-2.7-3.9-6.6-3.9-11.9v-9c0-3.1-2.1-5.3-5.1-5.3h-2.6c-3,0-5.1,2.2-5.1,5.3v9.2
					c0,8.6,2.6,15.5,7.8,20.6c5.2,5,12.1,7.6,20.5,7.6h15.7c8.4,0,15.3-2.5,20.5-7.6c5.2-5.1,7.8-12,7.8-20.6v-13.3
					c0-11.7-4.7-18.3-10.3-22c6.8-4.6,10.3-12,10.3-21.8v-12.3c0-8.6-2.6-15.5-7.8-20.6C387.9,259,381,256.4,372.6,256.4z"/>
				<path class="st1" d="M484.6,256.4h-18.4c-8.5,0-15.4,2.7-20.6,7.9c-5.2,5.2-7.8,12.2-7.8,20.8v68.3c0,8.6,2.6,15.6,7.8,20.8
					c5.2,5.2,12.1,7.9,20.6,7.9h18.4c8.5,0,15.4-2.7,20.6-7.9c5.2-5.2,7.8-12.2,7.8-20.8v-68.3c0-8.6-2.6-15.6-7.8-20.8
					C500,259.1,493,256.4,484.6,256.4z M484.6,369.7h-18.4c-5.1,0-8.9-1.4-11.5-4.2c-2.7-2.9-4-6.9-4-12.2v-68c0-5.3,1.3-9.3,4-12.2
					c2.6-2.8,6.4-4.2,11.5-4.2h18.4c5.1,0,8.9,1.4,11.5,4.2c2.7,2.9,4,6.9,4,12.2v68c0,5.3-1.3,9.3-4,12.2
					C493.5,368.3,489.7,369.7,484.6,369.7z"/>
				<path class="st1" d="M596.5,256.4h-18.4c-8.5,0-15.4,2.7-20.6,7.9c-5.2,5.2-7.8,12.2-7.8,20.8v68.3c0,8.6,2.6,15.6,7.8,20.8
					c5.2,5.2,12.1,7.9,20.6,7.9h18.4c8.5,0,15.4-2.7,20.6-7.9c5.2-5.2,7.8-12.2,7.8-20.8v-68.3c0-8.6-2.6-15.6-7.8-20.8
					C611.9,259.1,605,256.4,596.5,256.4z M596.5,369.7h-18.4c-5.1,0-8.9-1.4-11.5-4.2c-2.7-2.9-4-6.9-4-12.2v-68
					c0-5.3,1.3-9.3,4-12.2c2.6-2.8,6.4-4.2,11.5-4.2h18.4c5.1,0,8.9,1.4,11.5,4.2c2.7,2.9,4,6.9,4,12.2v68c0,5.3-1.3,9.3-4,12.2
					C605.4,368.3,601.7,369.7,596.5,369.7z"/>
				<path class="st1" d="M729.1,264.3C729.1,264.3,729.1,264.3,729.1,264.3c-5.2-5.2-12.1-7.9-20.6-7.9h-18.4
					c-8.5,0-15.4,2.7-20.6,7.9c-5.2,5.2-7.8,12.2-7.8,20.8v68.3c0,8.6,2.6,15.6,7.8,20.8c5.2,5.2,12.1,7.9,20.6,7.9h18.4
					c8.5,0,15.4-2.7,20.6-7.9c5.2-5.2,7.8-12.2,7.8-20.8v-68.3C736.9,276.6,734.3,269.6,729.1,264.3z M708.5,369.7h-18.4
					c-5.1,0-8.9-1.4-11.5-4.2c-2.7-2.9-4-6.9-4-12.2v-68c0-5.3,1.3-9.3,4-12.2c2.6-2.8,6.4-4.2,11.5-4.2h18.4
					c5.1,0,8.9,1.4,11.5,4.2c2.7,2.9,4,6.9,4,12.2v68c0,5.3-1.3,9.3-4,12.2C717.4,368.3,713.6,369.7,708.5,369.7z"/>
			</g>
		</g>
	</g>
</g>
</svg>
